<svg id="visual" viewBox="0 0 1366 768" width="1366" height="768" xmlns="http://www.w3.org/2000/svg" xmlns:xlink="http://www.w3.org/1999/xlink" version="1.1"><rect x="0" y="0" width="1366" height="768" fill="#fff4e6"></rect><path d="M0 444L25.3 442.3C50.7 440.7 101.3 437.3 152 436.2C202.7 435 253.3 436 303.8 435C354.3 434 404.7 431 455.2 418.2C505.7 405.3 556.3 382.7 607 387.5C657.7 392.3 708.3 424.7 759 444.8C809.7 465 860.3 473 910.8 466.7C961.3 460.3 1011.7 439.7 1062.2 419.5C1112.7 399.3 1163.3 379.7 1214 382.2C1264.7 384.7 1315.3 409.3 1340.7 421.7L1366 434L1366 769L1340.7 769C1315.3 769 1264.7 769 1214 769C1163.3 769 1112.7 769 1062.2 769C1011.7 769 961.3 769 910.8 769C860.3 769 809.7 769 759 769C708.3 769 657.7 769 607 769C556.3 769 505.7 769 455.2 769C404.7 769 354.3 769 303.8 769C253.3 769 202.7 769 152 769C101.3 769 50.7 769 25.3 769L0 769Z" fill="#be9b7b"></path><path d="M0 562L25.3 555.3C50.7 548.7 101.3 535.3 152 536.5C202.7 537.7 253.3 553.3 303.8 555.2C354.3 557 404.7 545 455.2 530.8C505.7 516.7 556.3 500.3 607 507.2C657.7 514 708.3 544 759 545.2C809.7 546.3 860.3 518.7 910.8 507.2C961.3 495.7 1011.7 500.3 1062.2 514.8C1112.7 529.3 1163.3 553.7 1214 556.7C1264.7 559.7 1315.3 541.3 1340.7 532.2L1366 523L1366 769L1340.7 769C1315.3 769 1264.7 769 1214 769C1163.3 769 1112.7 769 1062.2 769C1011.7 769 961.3 769 910.8 769C860.3 769 809.7 769 759 769C708.3 769 657.7 769 607 769C556.3 769 505.7 769 455.2 769C404.7 769 354.3 769 303.8 769C253.3 769 202.7 769 152 769C101.3 769 50.7 769 25.3 769L0 769Z" fill="#977862"></path><path d="M0 628L25.3 617.3C50.7 606.7 101.3 585.3 152 589.5C202.7 593.7 253.3 623.3 303.8 624.7C354.3 626 404.7 599 455.2 594.3C505.7 589.7 556.3 607.3 607 620.2C657.7 633 708.3 641 759 638.8C809.7 636.7 860.3 624.3 910.8 618.2C961.3 612 1011.7 612 1062.2 609.3C1112.7 606.7 1163.3 601.3 1214 609.2C1264.7 617 1315.3 638 1340.7 648.5L1366 659L1366 769L1340.7 769C1315.3 769 1264.7 769 1214 769C1163.3 769 1112.7 769 1062.2 769C1011.7 769 961.3 769 910.8 769C860.3 769 809.7 769 759 769C708.3 769 657.7 769 607 769C556.3 769 505.7 769 455.2 769C404.7 769 354.3 769 303.8 769C253.3 769 202.7 769 152 769C101.3 769 50.7 769 25.3 769L0 769Z" fill="#71574a"></path><path d="M0 634L25.3 646.8C50.7 659.7 101.3 685.3 152 700.8C202.7 716.3 253.3 721.7 303.8 715.5C354.3 709.3 404.7 691.7 455.2 685.3C505.7 679 556.3 684 607 681.2C657.7 678.3 708.3 667.7 759 661.7C809.7 655.7 860.3 654.3 910.8 651.5C961.3 648.7 1011.7 644.3 1062.2 654.2C1112.7 664 1163.3 688 1214 687.3C1264.7 686.7 1315.3 661.3 1340.7 648.7L1366 636L1366 769L1340.7 769C1315.3 769 1264.7 769 1214 769C1163.3 769 1112.7 769 1062.2 769C1011.7 769 961.3 769 910.8 769C860.3 769 809.7 769 759 769C708.3 769 657.7 769 607 769C556.3 769 505.7 769 455.2 769C404.7 769 354.3 769 303.8 769C253.3 769 202.7 769 152 769C101.3 769 50.7 769 25.3 769L0 769Z" fill="#4b3832"></path></svg>